# xmcd
#
# Track frame offsets: 
#        150
#        13055
#        26885
#        38817
#        48335
#        60312
#        69507
#        84890
#        100675
#        113820
#
# Disc length: 1665 seconds
#
# Revision: 2
# Processed by: cddbd v1.4PL0 Copyright (c) Steve Scherf et al.
# Submitted via: ExactAudioCopy v0.90b3
#
DISCID=74067f0a
DTITLE=Patsy Cline and Jim Reeves - Remembering
DYEAR=2001
DGENRE=Country
TTITLE0=I Fall To Pieces (Duet)
TTITLE1=So Wrong (Patsy)
TTITLE2=Misty Moonlight (Jim)
TTITLE3=Back In Baby's Arms (Patsy)
TTITLE4=Missing You (Jim)
TTITLE5=Walking After Midnight (Patsy)
TTITLE6=The Blizzard (Jim)
TTITLE7=Why Can't He Be You (Patsy)
TTITLE8=Distant Drums (Jim)
TTITLE9=Leaving On Your Mind (Patsy)
EXTD=YEAR: 2001  ID3G:   2
EXTT0=
EXTT1=
EXTT2=
EXTT3=
EXTT4=
EXTT5=
EXTT6=
EXTT7=
EXTT8=
EXTT9=
PLAYORDER=
